# xmcd CD database file
# Copyright (C) 1997 Ti Kan
# 
# Track frame offsets:
#     150
#     11365
#     24472
#     37130
#     49315
#     61692
#     74952
#     92020
#     107970
#     124305
#     135712
#     151187
#     166250
#     175850
#     191675
# 
# Disc length: 2757 seconds
# 
# Revision: 1
# Processed by: cddbd v1.4b41PL1 Copyright (c) Steve Scherf et al.
# Submitted via: DiscPlay 4.0.4
# 
DISCID=d10ac30f
DTITLE=Various Artist - Born to boogie 3
DYEAR=1900
DGENRE=
TTITLE0=Chains
TTITLE1=The race is on
TTITLE2=Bayou boys
TTITLE3=If your heart should roll this way again
TTITLE4=There goes my heart again
TTITLE5=Breaking new ground
TTITLE6=Love out loud
TTITLE7=Where did i go wrong
TTITLE8=On second thought
TTITLE9=Timber i'm falling in love
TTITLE10=Honky tonk heart
TTITLE11=Keep it in the middle of the road
TTITLE12=Up and gone
TTITLE13=Big dreams in small town
TTITLE14=In a letter to you
EXTD=
EXTT0=
EXTT1=
EXTT2=
EXTT3=
EXTT4=
EXTT5=
EXTT6=
EXTT7=
EXTT8=
EXTT9=
EXTT10=
EXTT11=
EXTT12=
EXTT13=
EXTT14=
PLAYORDER=
